<?xml version="1.0" encoding="UTF-8"?>
<svg xmlns="http://www.w3.org/2000/svg" xmlns:xlink="http://www.w3.org/1999/xlink" viewBox="0 0 50 50" width="50px" height="50px">
<g id="surface46998831">
<path style="fill-rule:nonzero;fill:rgb(0%,0%,0%);fill-opacity:1;stroke-width:1;stroke-linecap:butt;stroke-linejoin:round;stroke:rgb(80.000001%,80.000001%,80.000001%);stroke-opacity:1;stroke-miterlimit:10;" d="M 12.147824 83.323313 C 8.038166 90.812624 6.875566 95.990252 6.875566 99.42398 C 6.875566 102.384556 9.430583 110.063127 21.097145 110.063127 C 27.76182 110.063127 34.96724 107.197181 40.739687 104.885499 L 40.955985 104.790868 C 44.971013 103.182154 64.802816 94.665428 87.662788 84.783323 C 64.505406 91.069478 45.525276 96.20655 45.025087 96.328218 C 41.9834 97.193409 38.874119 97.639523 35.832431 97.639523 C 23.936053 97.639523 15.473403 92.340227 12.147824 83.323313 M 171.275399 56.056274 C 171.275399 56.056274 54.109594 106.940328 43.511003 111.185172 C 37.224848 113.699633 29.181275 116.9441 21.083626 116.9441 C 6.132042 116.9441 -0.00540742 106.710511 -0.00540742 99.42398 C -0.00540742 86.811115 10.850038 70.940265 22.043448 57.800175 C 18.866574 64.126885 17.474157 69.507293 17.474157 73.981953 C 17.474157 85.486291 24.855319 90.75855 35.832431 90.75855 C 38.2793 90.75855 40.780243 90.380029 43.227112 89.690579 C 43.227112 89.690579 170.207429 55.285713 170.775211 55.150527 C 171.045583 55.082934 171.261881 55.055897 171.451141 55.055897 C 172.221702 55.055897 172.208184 55.61016 171.275399 56.056274 Z M 171.275399 56.056274 " transform="matrix(0.288953,0,0,0.288953,0.15,0.15)"/>
<path style=" stroke:none;fill-rule:nonzero;fill:rgb(0%,0%,0%);fill-opacity:1;" d="M 3.660156 24.226562 C 4.621094 26.832031 7.066406 28.363281 10.503906 28.363281 C 11.382812 28.363281 12.28125 28.234375 13.160156 27.984375 C 13.304688 27.949219 18.789062 26.464844 25.480469 24.648438 C 18.875 27.503906 13.144531 29.964844 11.984375 30.429688 L 11.921875 30.457031 C 10.253906 31.125 8.171875 31.953125 6.246094 31.953125 C 2.875 31.953125 2.136719 29.734375 2.136719 28.878906 C 2.136719 27.886719 2.472656 26.390625 3.660156 24.226562 M 49.691406 16.058594 C 49.636719 16.058594 49.574219 16.066406 49.496094 16.085938 C 49.332031 16.125 12.640625 26.066406 12.640625 26.066406 C 11.933594 26.265625 11.210938 26.375 10.503906 26.375 C 7.332031 26.375 5.199219 24.851562 5.199219 21.527344 C 5.199219 20.234375 5.601562 18.679688 6.519531 16.851562 C 3.285156 20.648438 0.148438 25.234375 0.148438 28.878906 C 0.148438 30.984375 1.921875 33.941406 6.242188 33.941406 C 8.582031 33.941406 10.90625 33.003906 12.722656 32.277344 C 15.785156 31.050781 49.640625 16.347656 49.640625 16.347656 C 49.910156 16.21875 49.914062 16.058594 49.691406 16.058594 Z M 49.691406 16.058594 "/>
</g>
</svg>
